<svg width="40" height="40" viewBox="0 0 40 40" fill="none" xmlns="http://www.w3.org/2000/svg">
<path d="M30.0613 27.9388C30.343 28.2205 30.5014 28.6027 30.5014 29.0013C30.5014 29.3998 30.343 29.782 30.0613 30.0638C29.7795 30.3455 29.3973 30.5039 28.9988 30.5039C28.6002 30.5039 28.218 30.3455 27.9363 30.0638L20 22.125L12.0613 30.0613C11.7795 30.343 11.3973 30.5014 10.9988 30.5014C10.6002 30.5014 10.218 30.343 9.93626 30.0613C9.65446 29.7795 9.49615 29.3973 9.49615 28.9988C9.49615 28.6002 9.65446 28.218 9.93626 27.9363L17.875 20L9.93876 12.0613C9.65696 11.7795 9.49865 11.3973 9.49865 10.9988C9.49865 10.6002 9.65696 10.218 9.93876 9.93626C10.2205 9.65446 10.6027 9.49615 11.0013 9.49615C11.3998 9.49615 11.782 9.65446 12.0638 9.93626L20 17.875L27.9388 9.93501C28.2205 9.65321 28.6027 9.4949 29.0013 9.4949C29.3998 9.4949 29.782 9.65321 30.0638 9.93501C30.3455 10.2168 30.5039 10.599 30.5039 10.9975C30.5039 11.396 30.3455 11.7782 30.0638 12.06L22.125 20L30.0613 27.9388Z" fill="white"/>
</svg>
