<svg width="40" height="40" viewBox="0 0 40 40" fill="none" xmlns="http://www.w3.org/2000/svg">
<path d="M32.5 20C32.5 20.3978 32.342 20.7794 32.0607 21.0607C31.7794 21.342 31.3978 21.5 31 21.5H9C8.60218 21.5 8.22064 21.342 7.93934 21.0607C7.65804 20.7794 7.5 20.3978 7.5 20C7.5 19.6022 7.65804 19.2206 7.93934 18.9393C8.22064 18.658 8.60218 18.5 9 18.5H31C31.3978 18.5 31.7794 18.658 32.0607 18.9393C32.342 19.2206 32.5 19.6022 32.5 20ZM9 13.5H31C31.3978 13.5 31.7794 13.342 32.0607 13.0607C32.342 12.7794 32.5 12.3978 32.5 12C32.5 11.6022 32.342 11.2206 32.0607 10.9393C31.7794 10.658 31.3978 10.5 31 10.5H9C8.60218 10.5 8.22064 10.658 7.93934 10.9393C7.65804 11.2206 7.5 11.6022 7.5 12C7.5 12.3978 7.65804 12.7794 7.93934 13.0607C8.22064 13.342 8.60218 13.5 9 13.5ZM31 26.5H9C8.60218 26.5 8.22064 26.658 7.93934 26.9393C7.65804 27.2206 7.5 27.6022 7.5 28C7.5 28.3978 7.65804 28.7794 7.93934 29.0607C8.22064 29.342 8.60218 29.5 9 29.5H31C31.3978 29.5 31.7794 29.342 32.0607 29.0607C32.342 28.7794 32.5 28.3978 32.5 28C32.5 27.6022 32.342 27.2206 32.0607 26.9393C31.7794 26.658 31.3978 26.5 31 26.5Z" fill="white"/>
</svg>
